# xmcd
#
# Track frame offsets: 
#        150
#        21742
#        39000
#        60385
#        83950
#        107872
#        126367
#        146795
#        164572
#        181197
#        196452
#        219855
#
# Disc length: 3275 seconds
#
# Revision: 0
# Processed by: cddbd v1.5.1PL2 Copyright (c) Steve Scherf et al.
# Submitted via: ExactAudioCopy v0.95b3
#
DISCID=ab0cc90c
DTITLE=Tony Joe White - Swamp Alligator
DYEAR=1900
DGENRE=Rock and Roll
TTITLE0=Undercover Agent for the Blues
TTITLE1=Tunica Motel
TTITLE2=BI - 40 Rhythm
TTITLE3=(You´re gonna look) good in Blues
TTITLE4=Porc Salad Annie
TTITLE5=Steamy Windows
TTITLE6=No news is good news
TTITLE7=Lustful Earl and the married woman
TTITLE8=I´ve gotta think about you baby
TTITLE9=Saturday night in oak grove Lousianna
TTITLE10=Even trolls love rock and roll
TTITLE11=Porc Salad Annie (Reprise)
EXTD=
EXTT0=
EXTT1=
EXTT2=
EXTT3=
EXTT4=
EXTT5=
EXTT6=
EXTT7=
EXTT8=
EXTT9=
EXTT10=
EXTT11=
PLAYORDER=
